<svg width="130" height="32" viewBox="0 0 130 32" fill="none" xmlns="http://www.w3.org/2000/svg">
<path d="M18.3456 26.3679L12.2563 18.8302L21.0975 7.86487H16.2782C14.112 7.86487 12.6303 8.53332 11.3178 10.0835L6.66087 15.8577V0H1.9898C0.896118 0 0 0.895998 0 2.00533V31.5804H4.67107C5.77181 31.5804 6.66087 30.6844 6.66087 29.575V21.7031L10.4499 26.3822L13.6604 30.3715C14.3096 31.1964 15.1634 31.5804 16.0383 31.5804H22.5581L18.3456 26.3608V26.3679Z" fill="white"/>
<path d="M30.3197 31.5875C26.7282 31.5875 24.2374 29.0844 24.2374 25.4577V2.00533C24.2374 0.895998 25.1335 0 26.2343 0H30.9053V24.1991C30.9053 25.1946 31.7097 26.0053 32.6905 26.0053H37.4533V29.5822C37.4533 30.6915 36.5572 31.5875 35.4565 31.5875H30.3197Z" fill="white"/>
<path d="M7.28878 15.0399H7.29584C7.29584 15.0399 7.28879 15.0399 7.28174 15.0399H7.28878ZM38.4058 6.12256L37.9965 6.55634C37.9965 6.55634 36.7265 7.85767 33.1279 7.85767H16.1441C13.4628 7.85767 12.1998 8.95989 11.2401 10.1474L10.7039 10.8088C10.7039 10.8088 10.6757 10.8372 10.6616 10.8514L7.28878 15.0328C8.51653 14.1012 10.1959 13.5394 11.9105 13.5394H33.1208C35.6963 13.5394 38.1659 12.7714 38.3705 10.8301C38.3917 10.6737 38.3917 10.5812 38.3917 10.5812V6.12256H38.4058Z" fill="#ED1B23"/>
<path d="M48.8065 29.4329C47.4518 27.7262 46.7744 25.2231 46.7744 21.9094C46.7744 18.5956 47.607 16.3272 49.2722 14.7272C50.9374 13.1343 53.2236 12.3307 56.1307 12.3307C58.2686 12.3307 59.6587 12.1956 60.3078 11.9325V15.1254C60.3078 15.5094 59.9833 15.7867 59.3412 15.9432C58.692 16.0996 57.7324 16.1778 56.4623 16.1778C54.5431 16.1778 53.1671 16.6472 52.3416 17.5929C51.516 18.5387 51.0998 19.9894 51.0998 21.9449C51.0998 26.0765 52.5603 28.1458 55.4886 28.1458C57.7183 28.1458 59.567 27.7973 61.0346 27.0933V30.0658C61.0346 30.5707 60.7806 30.9476 60.2796 31.1893C59.9197 31.4098 59.2424 31.5947 58.2475 31.7511C57.2526 31.9076 56.3847 31.9858 55.6368 31.9858C52.4474 31.9858 50.1754 31.1325 48.8207 29.4258L48.8065 29.4329Z" fill="#ED1B23"/>
<path d="M65.4305 30.7058C64.746 29.8453 64.4073 28.5013 64.4073 26.6595V5.15559C64.4073 4.45159 64.7672 4.10315 65.4869 4.10315H68.6551V26.624C68.6551 27.7333 69.029 28.2951 69.7699 28.2951C70.3908 28.2951 70.92 28.2382 71.3505 28.1173V30.6204C71.3505 30.8835 71.287 31.1111 71.1529 31.2889C71.0188 31.4738 70.8424 31.5946 70.6308 31.6729C70.031 31.8933 69.4665 32 68.9373 32C67.2792 32 66.1149 31.5733 65.4305 30.7129V30.7058Z" fill="#ED1B23"/>
<path d="M75.5416 29.6745C74.0881 28.1243 73.3613 25.5856 73.3613 22.0585C73.3613 18.5314 74.0881 15.9785 75.5416 14.407C76.9952 12.8354 79.0979 12.0532 81.8568 12.0532C84.6157 12.0532 86.7254 12.8426 88.1931 14.407C89.6536 15.9785 90.3875 18.5314 90.3875 22.0585C90.3875 25.5856 89.6536 28.1243 88.1931 29.6745C86.7254 31.2176 84.6157 31.9927 81.8568 31.9927C79.0979 31.9927 76.9952 31.2176 75.5416 29.6745ZM85.039 26.7732C85.7234 25.8559 86.0621 24.2843 86.0621 22.0585C86.0621 19.8328 85.7234 18.2541 85.039 17.3083C84.3546 16.3625 83.2891 15.8932 81.8568 15.8932C80.4244 15.8932 79.3589 16.3625 78.6886 17.3083C78.0183 18.2541 77.6796 19.8328 77.6796 22.0585C77.6796 24.2843 78.0112 25.8559 78.6886 26.7732C79.3589 27.6905 80.4173 28.1527 81.8568 28.1527C83.2962 28.1527 84.3546 27.6905 85.039 26.7732Z" fill="#ED1B23"/>
<path d="M95.9265 30.4497C94.727 29.4186 94.1272 27.8328 94.1272 25.6853V13.248C94.1272 12.6435 94.4306 12.3378 95.0233 12.3378H98.3679V24.704C98.3679 27.0506 99.3275 28.224 101.247 28.224C101.988 28.224 102.658 28.1031 103.244 27.8613C103.829 27.6195 104.507 27.2568 105.276 26.7733V16.6898C105.276 15.5307 105.311 14.6489 105.382 14.0444C105.452 13.44 105.593 13.0062 105.798 12.736C106.002 12.4729 106.306 12.3378 106.715 12.3378H110.06C109.7 13.2338 109.523 14.6133 109.523 16.4693V30.5422C109.523 31.2462 109.178 31.5946 108.479 31.5946H105.276V30.5066C104.457 30.9902 103.716 31.36 103.046 31.6088C102.376 31.8648 101.607 31.9928 100.739 31.9928C98.7207 31.9928 97.119 31.4808 95.9194 30.4497H95.9265Z" fill="#ED1B23"/>
<path d="M115.281 29.5609C114.053 27.9396 113.447 25.5716 113.447 22.4498C113.447 15.5094 116.474 12.0392 122.514 12.0392C123.473 12.0392 124.369 12.1458 125.216 12.3663V8.44806C125.216 7.26762 125.251 6.37873 125.322 5.7814C125.392 5.19118 125.527 4.7574 125.717 4.49429C125.908 4.23118 126.225 4.09607 126.656 4.09607H130C129.64 4.96362 129.464 6.34318 129.464 8.22762V30.528C129.464 31.232 129.104 31.5805 128.384 31.5805H125.216V30.528C123.777 31.4951 122.253 31.9787 120.644 31.9787C118.294 31.9787 116.509 31.168 115.281 29.5467V29.5609ZM123.579 27.712C124.285 27.4205 124.835 27.0507 125.216 26.5885V16.2205C124.468 16 123.678 15.8934 122.838 15.8934C121.349 15.8934 120.136 16.3343 119.19 17.216C118.245 18.0978 117.772 19.8685 117.772 22.528C117.772 24.3414 118.111 25.728 118.781 26.6951C119.451 27.6622 120.411 28.1458 121.66 28.1458C122.238 28.1458 122.881 28.0036 123.586 27.712H123.579Z" fill="#ED1B23"/>
</svg>
