<svg width="98" height="24" viewBox="0 0 98 24" fill="none" xmlns="http://www.w3.org/2000/svg">
<g clip-path="url(#clip0_120_6540)">
<path d="M13.8298 19.7804L9.23936 14.1258L15.9043 5.89998H12.2713C10.6383 5.89998 9.52128 6.40142 8.53192 7.56435L5.02128 11.896V0H1.5C0.675532 0 0 0.672149 0 1.50433V23.6906H3.52128C4.35106 23.6906 5.02128 23.0184 5.02128 22.1863V16.281L7.87766 19.7911L10.2979 22.7837C10.7872 23.4025 11.4309 23.6906 12.0904 23.6906H17.0053L13.8298 19.7751V19.7804Z" fill="#221E1F"/>
<path d="M22.8563 23.6959C20.1489 23.6959 18.2712 21.8182 18.2712 19.0976V1.50433C18.2712 0.672149 18.9468 0 19.7766 0H23.2978V18.1534C23.2978 18.9002 23.9042 19.5083 24.6436 19.5083H28.234V22.1916C28.234 23.0238 27.5585 23.6959 26.7287 23.6959H22.8563Z" fill="#221E1F"/>
<path d="M5.49458 11.2825H5.4999C5.4999 11.2825 5.49458 11.2825 5.48926 11.2825H5.49458ZM28.952 4.59302L28.6435 4.91842C28.6435 4.91842 27.6861 5.89464 24.9733 5.89464H12.1701C10.1488 5.89464 9.1967 6.72149 8.4733 7.61236L8.06905 8.10847C8.06905 8.10847 8.04777 8.1298 8.03713 8.14047L5.49458 11.2772C6.42011 10.5783 7.68607 10.1569 8.97862 10.1569H24.968C26.9095 10.1569 28.7712 9.58079 28.9254 8.12447C28.9414 8.00711 28.9414 7.93776 28.9414 7.93776V4.59302H28.952Z" fill="#ED1B23"/>
<path d="M36.7927 22.0795C35.7714 20.7993 35.2607 18.9215 35.2607 16.4356C35.2607 13.9497 35.8884 12.248 37.1437 11.0478C38.399 9.85283 40.1224 9.25003 42.3139 9.25003C43.9256 9.25003 44.9735 9.14867 45.4629 8.95129V11.3465C45.4629 11.6346 45.2182 11.8426 44.7288 11.96C44.2395 12.0773 43.5161 12.136 42.5586 12.136C41.1118 12.136 40.0746 12.4881 39.4522 13.1976C38.8299 13.9071 38.5161 14.9953 38.5161 16.4623C38.5161 19.5617 39.6171 21.114 41.8246 21.114C43.5054 21.114 44.899 20.8526 46.0054 20.3245V22.5543C46.0054 22.9331 45.8139 23.2158 45.4363 23.3972C45.165 23.5625 44.6544 23.7012 43.9044 23.8186C43.1544 23.936 42.5001 23.9946 41.9363 23.9946C39.532 23.9946 37.8193 23.3545 36.798 22.0742L36.7927 22.0795Z" fill="#ED1B23"/>
<path d="M49.3245 23.0344C48.8085 22.389 48.5532 21.3807 48.5532 19.9991V3.86751C48.5532 3.33939 48.8245 3.078 49.3671 3.078H51.7554V19.9724C51.7554 20.8046 52.0373 21.226 52.5958 21.226C53.0639 21.226 53.4628 21.1834 53.7873 21.0927V22.9704C53.7873 23.1678 53.7394 23.3385 53.6383 23.4719C53.5373 23.6106 53.4043 23.7012 53.2447 23.7599C52.7926 23.9253 52.3671 24.0053 51.9681 24.0053C50.7181 24.0053 49.8405 23.6852 49.3245 23.0398V23.0344Z" fill="#ED1B23"/>
<path d="M56.9468 22.2609C55.8511 21.098 55.3032 19.1936 55.3032 16.5477C55.3032 13.9017 55.8511 11.9866 56.9468 10.8077C58.0426 9.62879 59.6277 9.04199 61.7075 9.04199C63.7873 9.04199 65.3777 9.63412 66.4841 10.8077C67.5851 11.9866 68.1383 13.9017 68.1383 16.5477C68.1383 19.1936 67.5851 21.098 66.4841 22.2609C65.3777 23.4185 63.7873 24 61.7075 24C59.6277 24 58.0426 23.4185 56.9468 22.2609ZM64.1064 20.0844C64.6224 19.3963 64.8777 18.2174 64.8777 16.5477C64.8777 14.878 64.6224 13.6937 64.1064 12.9842C63.5905 12.2747 62.7873 11.9226 61.7075 11.9226C60.6277 11.9226 59.8245 12.2747 59.3192 12.9842C58.8139 13.6937 58.5585 14.878 58.5585 16.5477C58.5585 18.2174 58.8085 19.3963 59.3192 20.0844C59.8245 20.7726 60.6224 21.1193 61.7075 21.1193C62.7926 21.1193 63.5905 20.7726 64.1064 20.0844Z" fill="#ED1B23"/>
<path d="M72.3139 22.8424C71.4096 22.0689 70.9575 20.8793 70.9575 19.2683V9.93819C70.9575 9.48475 71.1862 9.25537 71.6331 9.25537H74.1543V18.5321C74.1543 20.2925 74.8777 21.1727 76.3245 21.1727C76.8831 21.1727 77.3884 21.082 77.8299 20.9006C78.2714 20.7193 78.782 20.4472 79.3618 20.0844V12.5201C79.3618 11.6506 79.3884 10.9891 79.4416 10.5357C79.4948 10.0822 79.6011 9.75682 79.7554 9.5541C79.9097 9.35673 80.1384 9.25537 80.4469 9.25537H82.9682C82.6969 9.92752 82.5639 10.9624 82.5639 12.3547V22.9117C82.5639 23.4399 82.3033 23.7012 81.7767 23.7012H79.3618V22.8851C78.7448 23.2478 78.1862 23.5252 77.6809 23.7119C77.1756 23.904 76.5958 24 75.9416 24C74.4203 24 73.2128 23.6159 72.3086 22.8424H72.3139Z" fill="#ED1B23"/>
<path d="M86.9045 22.1755C85.9789 20.9593 85.5215 19.1829 85.5215 16.841C85.5215 11.6345 87.8034 9.03129 92.3566 9.03129C93.08 9.03129 93.7555 9.11131 94.3938 9.27668V6.33736C94.3938 5.45183 94.4204 4.78501 94.4736 4.33691C94.5268 3.89415 94.6279 3.56874 94.7715 3.37136C94.9151 3.17399 95.1545 3.07263 95.4789 3.07263H98.0002C97.7289 3.72344 97.596 4.75834 97.596 6.17199V22.901C97.596 23.4292 97.3247 23.6905 96.7821 23.6905H94.3938V22.901C93.3087 23.6265 92.1598 23.9893 90.947 23.9893C89.1757 23.9893 87.83 23.3811 86.9045 22.1649V22.1755ZM93.1598 20.7886C93.6917 20.5699 94.1066 20.2925 94.3938 19.9457V12.168C93.83 12.0026 93.2342 11.9226 92.6013 11.9226C91.4789 11.9226 90.564 12.2533 89.8513 12.9148C89.1385 13.5763 88.7821 14.9046 88.7821 16.8997C88.7821 18.26 89.0374 19.3002 89.5428 20.0257C90.0481 20.7512 90.7715 21.114 91.713 21.114C92.1491 21.114 92.6332 21.0073 93.1651 20.7886H93.1598Z" fill="#ED1B23"/>
</g>
<defs>
<clipPath id="clip0_120_6540">
<rect width="98" height="24" fill="white"/>
</clipPath>
</defs>
</svg>
