<svg width="111" height="40" viewBox="0 0 111 40" fill="none" xmlns="http://www.w3.org/2000/svg">
<g clip-path="url(#clip0_1_6761)">
<path d="M80.6076 4.04086C83.3805 4.04086 85.8594 5.82948 85.8594 9.59788V10.8394H77.5618V11.0283C77.5618 13.1125 78.9696 14.2485 80.6701 14.2485H80.7118C82.2237 14.2485 83.3377 13.4487 83.4638 12.1435H85.8583C85.6478 14.2276 83.842 16.2689 80.6701 16.2689H80.6493C77.5827 16.2689 75.0412 14.354 75.0412 10.7328V9.59569C75.0412 5.93275 77.6879 4.03867 80.5868 4.03867H80.6076V4.04086ZM80.566 6.08217C79.054 6.08217 77.6463 7.13469 77.5618 9.13425H83.3596C83.3388 7.05009 82.1207 6.08217 80.5868 6.08217H80.566Z" fill="#000040"/>
<path d="M92.9246 16.2711C90.0893 16.2711 87.5259 14.3562 87.5259 10.735V9.59788C87.5259 5.93495 90.0882 4.04086 92.9246 4.04086H92.9663C95.9069 4.04086 98.1545 5.9778 98.2181 8.77718H95.8235C95.761 7.24016 94.4793 6.18764 92.9663 6.18764H92.9246C91.4752 6.18764 90.0674 7.26103 90.0674 9.30234V11.0075C90.0674 13.0488 91.4752 14.1222 92.9246 14.1222H92.9663C94.4782 14.1222 95.7599 13.0905 95.8235 11.5337H98.2181C98.1556 14.3122 95.908 16.27 92.9663 16.27H92.9246V16.2711Z" fill="#000040"/>
<path d="M106.358 4.02C108.899 4.02 111 5.83059 111 9.2617V15.9339H108.459V9.59789C108.459 7.26104 107.24 6.16678 105.665 6.16678H105.644C104.153 6.16678 102.724 7.24017 102.724 9.76599V15.9339H100.183V0H102.724V5.85146C103.543 4.63085 104.888 4.02 106.337 4.02H106.358Z" fill="#000040"/>
<path d="M10.6877 15.9339H7.38975L2.68398 10.2505V15.9339H0.142517V0H2.68398V9.87146L7.38975 4.39903H10.4564L5.87671 9.53527L5.56204 9.89343L5.98197 10.356L10.6877 15.9339Z" fill="#000040"/>
<path d="M19.312 4.39903H21.8535V15.9339H19.312V14.2705C18.5347 15.5966 17.1697 16.2492 15.6566 16.2492H15.6358C13.0099 16.2492 10.8884 14.4595 10.8884 10.9866V9.34519C10.8884 5.87233 13.0099 4.04086 15.6358 4.04086H15.6566C17.1686 4.04086 18.5347 4.62974 19.312 5.8932V4.39903ZM16.3287 14.1233C17.8198 14.1233 19.312 12.9235 19.312 10.5241V9.80883C19.312 7.38848 17.8209 6.18874 16.3287 6.18874H16.2871C14.7115 6.18874 13.4298 7.26213 13.4298 9.64073V10.6932C13.4298 13.051 14.7115 14.1244 16.2871 14.1244H16.3287V14.1233Z" fill="#000040"/>
<path d="M35.0959 15.9339H31.7979L27.0921 10.2505V15.9339H24.5507V0H27.0921V9.87146L31.7979 4.39903H34.8645L30.2849 9.53527L29.9702 9.89343L30.3901 10.356L35.0959 15.9339Z" fill="#000040"/>
<path d="M43.7202 4.39903H46.2617V15.9339H43.7202V14.2705C42.9428 15.5966 41.5778 16.2492 40.0648 16.2492H40.0439C37.4181 16.2492 35.2965 14.4595 35.2965 10.9866V9.34519C35.2965 5.87233 37.4181 4.04086 40.0439 4.04086H40.0648C41.5767 4.04086 42.9428 4.62974 43.7202 5.8932V4.39903ZM40.7369 14.1233C42.228 14.1233 43.7202 12.9235 43.7202 10.5241V9.80883C43.7202 7.38848 42.2291 6.18874 40.7369 6.18874H40.6952C39.1197 6.18874 37.838 7.26213 37.838 9.64073V10.6932C37.838 13.051 39.1197 14.1244 40.6952 14.1244H40.7369V14.1233Z" fill="#000040"/>
<path d="M53.6448 16.2711C50.8095 16.2711 48.2462 14.3979 48.2462 10.7778V9.55723C48.2462 5.91518 50.8085 4.04196 53.6448 4.04196H53.6865C56.5437 4.04196 59.0852 5.91518 59.0852 9.55723V10.7778C59.0852 14.3979 56.5437 16.2711 53.6865 16.2711H53.6448ZM53.6865 14.1244C55.1568 14.1244 56.5437 13.051 56.5437 11.0086V9.30344C56.5437 7.26213 55.1579 6.18764 53.6865 6.18764H53.6448C52.1954 6.18764 50.7876 7.26103 50.7876 9.30344V11.0086C50.7876 13.0499 52.1954 14.1244 53.6448 14.1244H53.6865Z" fill="#000040"/>
<path d="M71.6072 12.1457C71.536 13.4904 70.6293 14.2298 69.6611 14.2298H69.6403C68.6108 14.2298 67.6657 13.43 67.6657 11.9776V6.39969H72.5809V4.40013H67.6657V1.4733H65.145V4.39903H63.234V6.39859H65.145V11.9139C65.145 14.777 67.1197 16.2711 69.4934 16.2711H69.5142C71.798 16.2711 73.879 14.8165 73.9634 12.1457H71.6083H71.6072Z" fill="#000040"/>
<path d="M6.25608 23.8607C8.89842 23.8607 11.0331 25.7031 11.0331 29.198V30.8504C11.0331 34.3452 8.89842 36.1459 6.25608 36.1459H6.23525C4.69261 36.1459 3.33965 35.5746 2.55682 34.2826V34.5474C2.55682 35.2549 1.98449 35.8284 1.27841 35.8284C0.572323 35.8273 0 35.2538 0 34.5463V21.0756C0 20.3681 0.572323 19.7946 1.27841 19.7946C1.98449 19.7946 2.55682 20.3681 2.55682 21.0756V25.8943C3.33855 24.5386 4.69152 23.8607 6.23525 23.8607H6.25608ZM8.47521 29.4946C8.47521 27.1017 7.18584 26.0207 5.5796 26.0207H5.55877C4.03696 26.0207 2.55682 27.2281 2.55682 29.6638V30.3834C2.55682 32.7983 4.03696 34.0057 5.55877 34.0057H5.5796C7.18584 34.0057 8.47521 32.9257 8.47521 30.5537V29.4946Z" fill="#0043FF"/>
<path d="M18.0095 36.1668C15.1556 36.1668 12.5768 34.2815 12.5768 30.6383V29.41C12.5768 25.746 15.1556 23.8607 18.0095 23.8607H18.0523C20.9271 23.8607 23.485 25.746 23.485 29.41V30.6383C23.485 34.2815 20.9271 36.1668 18.0523 36.1668H18.0095ZM18.0523 34.0068C19.5324 34.0068 20.9271 32.9268 20.9271 30.8723V29.1562C20.9271 27.1017 19.5324 26.0218 18.0523 26.0218H18.0095C16.5513 26.0218 15.1348 27.1017 15.1348 29.1562V30.8723C15.1348 32.9268 16.5513 34.0068 18.0095 34.0068H18.0523Z" fill="#0043FF"/>
<path d="M30.3364 36.1668C27.4825 36.1668 24.9037 34.2815 24.9037 30.6383V29.41C24.9037 25.746 27.4825 23.8607 30.3364 23.8607H30.3781C33.2529 23.8607 35.8108 25.746 35.8108 29.41V30.6383C35.8108 34.2815 33.2529 36.1668 30.3781 36.1668H30.3364ZM30.3781 34.0068C31.8582 34.0068 33.2529 32.9268 33.2529 30.8723V29.1562C33.2529 27.1017 31.8582 26.0218 30.3781 26.0218H30.3364C28.8782 26.0218 27.4617 27.1017 27.4617 29.1562V30.8723C27.4617 32.9268 28.8782 34.0068 30.3364 34.0068H30.3781Z" fill="#0043FF"/>
<path d="M53.5594 36.1668C50.7055 36.1668 48.1267 34.2397 48.1267 30.5966V29.4529C48.1267 25.768 50.7055 23.8607 53.5594 23.8607H53.6022C55.9517 23.8607 57.8617 25.089 58.5798 27.0051C58.8737 27.7895 58.2893 28.6267 57.4527 28.6267C56.9484 28.6267 56.4945 28.3114 56.3256 27.8345C55.9353 26.7304 54.8466 26.0218 53.6011 26.0218H53.5583C52.1001 26.0218 50.6835 27.1017 50.6835 29.1562V30.8723C50.6835 32.9268 52.1001 34.0068 53.5583 34.0068H53.6011C54.8488 34.0068 55.9408 33.3092 56.3278 32.194C56.4934 31.7172 56.9484 31.4019 57.4527 31.4019C58.2871 31.4019 58.8726 32.238 58.5765 33.0202C57.8562 34.9275 55.9474 36.1668 53.6 36.1668H53.5572H53.5594Z" fill="#0043FF"/>
<path d="M69.9846 24.221C70.6907 24.221 71.263 24.7945 71.263 25.5021V34.5463C71.263 35.2538 70.6907 35.8273 69.9846 35.8273C69.2785 35.8273 68.7062 35.2538 68.7062 34.5463V34.154C67.9245 35.4889 66.5507 36.1448 65.0278 36.1448H65.0069C62.3646 36.1448 60.2299 34.3441 60.2299 30.8493V29.1969C60.2299 25.702 62.3646 23.8596 65.0069 23.8596H65.0278C66.5496 23.8596 67.9234 24.4529 68.7062 25.724V25.5021C68.7062 24.7945 69.2785 24.221 69.9846 24.221ZM65.7043 34.0068C67.2052 34.0068 68.7062 32.7994 68.7062 30.3845V29.6649C68.7062 27.2292 67.2052 26.0218 65.7043 26.0218H65.6626C64.0772 26.0218 62.7878 27.1017 62.7878 29.4957V30.5548C62.7878 32.9268 64.0772 34.0068 65.6626 34.0068H65.7043Z" fill="#0043FF"/>
<path d="M87.9678 23.8607C90.3985 23.8607 92.3644 25.4922 92.3644 28.6047V34.5463C92.3644 35.2538 91.7921 35.8273 91.086 35.8273C90.3799 35.8273 89.8076 35.2538 89.8076 34.5463V28.9442C89.8076 26.9534 88.687 26.0218 87.2288 26.0218H87.208C85.7278 26.0218 84.3124 27.06 84.3124 29.5166V34.5572C84.3124 35.2593 83.7444 35.8284 83.0438 35.8284C82.3432 35.8284 81.7753 35.2593 81.7753 34.5572V28.9442C81.7753 26.9534 80.6548 26.0218 79.1966 26.0218H79.1757C77.7175 26.0218 76.301 27.06 76.301 29.5166V34.5474C76.301 35.2549 75.7286 35.8284 75.0226 35.8284C74.3165 35.8284 73.7441 35.2549 73.7441 34.5474V25.5032C73.7441 24.7956 74.3165 24.2221 75.0226 24.2221C75.7286 24.2221 76.301 24.7956 76.301 25.5032V25.7042C77.1046 24.4551 78.4784 23.8618 79.9158 23.8618H79.9366C81.7336 23.8618 83.2555 24.7297 83.9319 26.4458C84.672 24.688 86.2574 23.8618 87.9481 23.8618H87.9689L87.9678 23.8607Z" fill="#0043FF"/>
<path d="M100.888 23.8607C103.53 23.8607 105.665 25.7031 105.665 29.198V30.8504C105.665 34.3452 103.53 36.1459 100.888 36.1459H100.867C99.3244 36.1459 97.9714 35.5746 97.1886 34.2826V38.7201C97.1886 39.4276 96.6163 40.0011 95.9102 40.0011C95.2041 40.0011 94.6318 39.4276 94.6318 38.7201V25.5032C94.6318 24.7956 95.2041 24.2221 95.9102 24.2221C96.6163 24.2221 97.1886 24.7956 97.1886 25.5032V25.8954C97.9703 24.5397 99.3233 23.8618 100.867 23.8618H100.888V23.8607ZM103.107 29.4946C103.107 27.1017 101.818 26.0207 100.211 26.0207H100.191C98.6687 26.0207 97.1886 27.2281 97.1886 29.6638V30.3834C97.1886 32.7983 98.6687 34.0057 100.191 34.0057H100.211C101.818 34.0057 103.107 32.9257 103.107 30.5537V29.4946Z" fill="#0043FF"/>
<path d="M46.0545 32.0083C45.5699 32.0083 45.1214 32.3028 44.9613 32.762C44.6565 33.6366 43.9187 34.109 43.1424 34.109H43.1216C42.0844 34.109 41.1316 33.3026 41.1316 31.8392V26.2173H45.0798C45.6356 26.2173 46.0852 25.7658 46.0852 25.2098C46.0852 24.6528 45.6345 24.2024 45.0798 24.2024H41.1316V22.5258C41.1316 21.8227 40.5626 21.2525 39.8609 21.2525C39.1592 21.2525 38.5901 21.8227 38.5901 22.5258V24.2024H37.6692C37.1133 24.2024 36.6638 24.6539 36.6638 25.2098C36.6638 25.7669 37.1144 26.2173 37.6692 26.2173H38.5901V31.7754C38.5901 34.6605 40.5801 36.1668 42.9725 36.1668H42.9933C44.7695 36.1668 46.424 35.2933 47.1257 33.6585C47.4601 32.8785 46.8998 32.0094 46.0534 32.0094L46.0545 32.0083Z" fill="#0043FF"/>
</g>
<defs>
<clipPath id="clip0_1_6761">
<rect width="111" height="40" fill="white"/>
</clipPath>
</defs>
</svg>
