<svg width="133" height="32" viewBox="0 0 133 32" fill="none" xmlns="http://www.w3.org/2000/svg">
<g clip-path="url(#clip0_224_1786)">
<path d="M7.73694 18.034H0V13.2914H21.2555V18.034H13.5408V31.737H7.73811V18.034H7.73694Z" fill="#161616"/>
<path d="M23.7842 13.2914H41.2145V17.9031H29.5869V20.275H39.2358V24.3595H29.5869V27.1265H41.2145V31.7381H23.7842V13.2914Z" fill="#161616"/>
<path d="M57.5906 24.5336H63.3933C63.3933 29.1009 59.4581 32 53.4799 32C46.9295 32 42.71 28.2884 42.71 22.5136C42.71 16.7388 46.9306 13.0273 53.4799 13.0273C59.4581 13.0273 63.3933 15.9252 63.3933 20.4936H57.5906C57.3706 18.8687 55.9419 17.771 53.4366 17.771C50.3158 17.771 48.5349 19.4836 48.5349 22.4926C48.5349 25.5016 50.4469 27.2574 53.6121 27.2574C56.0074 27.2574 57.3706 26.1597 57.5906 24.5348V24.5336Z" fill="#161616"/>
<path d="M65.3732 13.2914H71.1759V19.791H79.2206V13.2914H85.0233V31.737H79.2206V24.5348H71.1759V31.737H65.3732V13.2914Z" fill="#161616"/>
<path d="M91.7188 24.5336V13.2903H97.5215V24.4015C97.5215 26.1585 98.9724 27.1241 101.588 27.1241C104.203 27.1241 105.633 26.1585 105.633 24.4015V13.2903H111.436V24.5336C111.436 29.2762 107.853 32 101.589 32C95.3251 32 91.7199 29.2774 91.7199 24.5336H91.7188Z" fill="#161616"/>
<path d="M113.964 13.2914H126.45C130.494 13.2914 133 15.6844 133 19.6157C133 23.547 130.363 26.4227 126.45 26.4227H119.768V31.737H113.965V13.2914H113.964ZM124.734 21.9432C126.316 21.9432 127.196 21.2184 127.196 19.9886C127.196 18.7588 126.273 18.034 124.734 18.034H119.767V21.9432H124.734Z" fill="#161616"/>
<path d="M8.46712 9.23387C8.22373 9.23387 8.00843 9.12515 7.84578 8.91941L6.8851 7.73756L5.55231 6.10681V8.75458C5.55231 9.01994 5.33701 9.23504 5.07139 9.23504H3.79126V0.593844C3.79126 0.328483 4.00656 0.113388 4.27102 0.113388H5.55231V5.0103L7.14487 3.05457C7.51346 2.62555 7.93003 2.44085 8.53733 2.44085H9.73789L7.19167 5.57258L9.0674 7.87433L10.1744 9.23387H8.46712Z" fill="black"/>
<path d="M5.43884 0.226785V5.32944L5.84254 4.83378L7.22915 3.13056C7.58019 2.72141 7.95931 2.55425 8.53736 2.55425H9.49921L7.16245 5.4288L7.04544 5.57259L7.16245 5.71637L8.97967 7.94564L9.93567 9.12048H8.46715C8.26004 9.12048 8.07633 9.02696 7.93357 8.84694L6.97406 7.66508L5.84371 6.281L5.44001 5.78651V8.75342C5.44001 8.95565 5.27502 9.12048 5.07376 9.12048H3.90713V0.593848C3.90713 0.391612 4.07095 0.226785 4.27338 0.226785H5.44001M5.66702 0H4.27221C3.94575 0 3.67896 0.265361 3.67896 0.593848V9.34609H5.07259C5.40139 9.34609 5.66702 9.07957 5.66702 8.75225V6.42361L6.79737 7.8077L7.75688 8.98838C7.95112 9.2327 8.20621 9.34609 8.46715 9.34609H10.4143L9.15636 7.80069L7.33914 5.57142L9.9778 2.3263H8.53853C7.89144 2.3263 7.4503 2.52385 7.05714 2.9821L5.66702 4.69V0Z" fill="black"/>
<path d="M12.73 9.23387C11.712 9.23387 11.0275 8.55118 11.0275 7.53415V0.593844C11.0275 0.329652 11.2439 0.113388 11.5107 0.113388H12.792V7.16008C12.792 7.51779 13.0822 7.8077 13.4379 7.8077H14.745V8.75224C14.745 9.0176 14.5285 9.2327 14.2629 9.2327H12.73V9.23387Z" fill="black"/>
<path d="M12.6785 0.226785V7.16008C12.6785 7.57975 13.019 7.92109 13.4391 7.92109H14.6326V8.75225C14.6326 8.95448 14.4676 9.11931 14.2652 9.11931H12.7323C11.7822 9.11931 11.1433 8.48221 11.1433 7.53299V0.593848C11.1433 0.391612 11.3094 0.227954 11.513 0.227954H12.6808M12.9078 0.00116899H11.513C11.1831 0.00116899 10.9163 0.26653 10.9163 0.595017V7.53416C10.9163 8.60846 11.6605 9.34843 12.7323 9.34843H14.2652C14.594 9.34843 14.8608 9.0819 14.8608 8.75458V7.69548H13.4402C13.1477 7.69548 12.9078 7.45583 12.9078 7.16125V0V0.00116899Z" fill="black"/>
<path d="M15.1452 1.81078L15.0235 1.93936C15.0165 1.9417 14.6444 2.32396 13.5702 2.32396H8.49998C7.6996 2.32396 7.32282 2.65011 7.03497 3.00198L6.87583 3.1972C6.87583 3.1972 6.86764 3.20538 6.86413 3.21006L5.85781 4.44685C6.22406 4.17097 6.72605 4.00614 7.2374 4.00614H13.5702C14.3401 4.00614 15.0773 3.77819 15.1382 3.20421C15.1452 3.15862 15.1452 3.1294 15.1452 3.1294V1.81078Z" fill="#D83831"/>
<path d="M18.2495 8.71018C17.8446 8.20634 17.6422 7.46403 17.6422 6.48325C17.6422 5.50246 17.8914 4.83029 18.3888 4.35802C18.8861 3.88574 19.5694 3.64961 20.4353 3.64961C21.0731 3.64961 21.4884 3.61103 21.6815 3.53154V4.47609C21.6815 4.59065 21.5844 4.67131 21.3925 4.7169C21.1983 4.76366 20.9127 4.78704 20.5324 4.78704C19.9591 4.78704 19.5495 4.92615 19.3015 5.20554C19.0546 5.48493 18.9317 5.91395 18.9317 6.49377C18.9317 7.71653 19.3682 8.32909 20.2423 8.32909C20.9081 8.32909 21.4604 8.22504 21.8968 8.01813V8.89839C21.8968 9.04802 21.8208 9.15907 21.671 9.23155C21.5633 9.29584 21.3609 9.35078 21.0637 9.39754C20.7665 9.4443 20.5067 9.46768 20.2855 9.46768C19.3331 9.46768 18.6544 9.21518 18.2507 8.71135L18.2495 8.71018Z" fill="#D83831"/>
<path d="M23.2109 9.08659C23.0073 8.83291 22.9043 8.43429 22.9043 7.88954V1.52671C22.9043 1.3198 23.0119 1.21576 23.2261 1.21576H24.1716V7.87902C24.1716 8.2075 24.2827 8.37233 24.5039 8.37233C24.6899 8.37233 24.8479 8.3548 24.9766 8.31856V9.05853C24.9766 9.13685 24.9567 9.20349 24.9181 9.25726C24.8783 9.31103 24.8268 9.34844 24.7625 9.36948C24.5834 9.43378 24.4149 9.46651 24.257 9.46651C23.7632 9.46651 23.4145 9.33909 23.2097 9.08542L23.2109 9.08659Z" fill="#D83831"/>
<path d="M26.2298 8.78032C25.7957 8.32207 25.5792 7.57158 25.5792 6.5265C25.5792 5.48142 25.7957 4.72742 26.2298 4.26216C26.6628 3.7969 27.2911 3.56427 28.1149 3.56427C28.9387 3.56427 29.5682 3.7969 30.0058 4.26216C30.4423 4.72742 30.6611 5.48142 30.6611 6.5265C30.6611 7.57158 30.4435 8.32207 30.0058 8.78032C29.5682 9.23739 28.9387 9.46651 28.1149 9.46651C27.2911 9.46651 26.6628 9.23739 26.2298 8.78032ZM29.0662 7.92111C29.2698 7.6499 29.3716 7.18464 29.3716 6.5265C29.3716 5.86835 29.2698 5.39959 29.0662 5.1202C28.8615 4.84081 28.5443 4.7017 28.1149 4.7017C27.6855 4.7017 27.3695 4.84081 27.1694 5.1202C26.9693 5.39959 26.8687 5.86835 26.8687 6.5265C26.8687 7.18464 26.9682 7.6499 27.1694 7.92111C27.3695 8.19348 27.6855 8.32908 28.1149 8.32908C28.5443 8.32908 28.8615 8.19348 29.0662 7.92111Z" fill="#D83831"/>
<path d="M32.3146 9.0106C31.9565 8.70666 31.7775 8.23672 31.7775 7.59962V3.91847C31.7775 3.73961 31.8676 3.6496 32.0454 3.6496H33.0447V7.30854C33.0447 8.00293 33.3314 8.35012 33.9036 8.35012C34.1259 8.35012 34.3237 8.31388 34.4992 8.24257C34.6747 8.17126 34.8772 8.06371 35.1065 7.9211V4.93783C35.1065 4.59414 35.117 4.33346 35.1393 4.1546C35.1603 3.97575 35.2013 3.84716 35.2633 3.76883C35.3241 3.69051 35.4154 3.65077 35.5371 3.65077H36.5352C36.4276 3.91613 36.3749 4.32294 36.3749 4.8747V9.03865C36.3749 9.24556 36.2708 9.3496 36.0637 9.3496H35.1077V9.02813C34.8643 9.17075 34.642 9.28063 34.4419 9.35545C34.2406 9.43026 34.0124 9.46884 33.7538 9.46884C33.1524 9.46884 32.6726 9.31687 32.3146 9.01293V9.0106Z" fill="#D83831"/>
<path d="M38.0939 8.74758C37.7276 8.2683 37.5463 7.5669 37.5463 6.64457C37.5463 4.59182 38.4484 3.56544 40.254 3.56544C40.5406 3.56544 40.8086 3.59817 41.0602 3.66247V2.50399C41.0602 2.1533 41.0707 1.89027 41.0918 1.71609C41.1128 1.54075 41.1515 1.41332 41.21 1.335C41.2673 1.25668 41.3609 1.21693 41.4896 1.21693H42.4878C42.3813 1.47411 42.3274 1.88209 42.3274 2.4397V9.03983C42.3274 9.24674 42.2198 9.35078 42.0045 9.35078H41.059V9.03983C40.6296 9.32624 40.1744 9.46885 39.6946 9.46885C38.9926 9.46885 38.459 9.22921 38.0939 8.74992V8.74758ZM40.5699 8.2005C40.7805 8.11516 40.9443 8.00411 41.059 7.86733V4.79873C40.8367 4.73443 40.6003 4.7017 40.3499 4.7017C39.9064 4.7017 39.5425 4.83263 39.2605 5.09331C38.9773 5.354 38.8358 5.87888 38.8358 6.66561C38.8358 7.20218 38.9364 7.61366 39.1365 7.90006C39.3366 8.18647 39.6233 8.32908 39.9954 8.32908C40.1674 8.32908 40.3593 8.28583 40.5699 8.2005Z" fill="#D83831"/>
</g>
<defs>
<clipPath id="clip0_224_1786">
<rect width="133" height="32" fill="white"/>
</clipPath>
</defs>
</svg>
