<svg width="111" height="40" viewBox="0 0 111 40" fill="none" xmlns="http://www.w3.org/2000/svg">
<g clip-path="url(#clip0_29944_1942)">
<mask id="mask0_29944_1942" style="mask-type:luminance" maskUnits="userSpaceOnUse" x="0" y="0" width="111" height="40">
<path d="M111 0H0V40H111V0Z" fill="white"/>
</mask>
<g mask="url(#mask0_29944_1942)">
<path d="M80.6077 4.04086C83.3806 4.04086 85.8595 5.82948 85.8595 9.59788V10.8394H77.5619V11.0283C77.5619 13.1125 78.9697 14.2485 80.6702 14.2485H80.7119C82.2238 14.2485 83.3378 13.4487 83.4639 12.1435H85.8584C85.6479 14.2276 83.8421 16.2689 80.6702 16.2689H80.6494C77.5828 16.2689 75.0413 14.354 75.0413 10.7328V9.59569C75.0413 5.93275 77.688 4.03867 80.5869 4.03867H80.6077V4.04086ZM80.5661 6.08217C79.0541 6.08217 77.6464 7.13469 77.5619 9.13425H83.3597C83.3389 7.05009 82.1208 6.08217 80.5869 6.08217H80.5661Z" fill="white"/>
<path d="M92.9246 16.2711C90.0893 16.2711 87.5259 14.3562 87.5259 10.735V9.59788C87.5259 5.93495 90.0882 4.04086 92.9246 4.04086H92.9663C95.9069 4.04086 98.1545 5.9778 98.2181 8.77718H95.8235C95.761 7.24016 94.4793 6.18764 92.9663 6.18764H92.9246C91.4752 6.18764 90.0674 7.26103 90.0674 9.30234V11.0075C90.0674 13.0488 91.4752 14.1222 92.9246 14.1222H92.9663C94.4782 14.1222 95.7599 13.0905 95.8235 11.5337H98.2181C98.1556 14.3122 95.908 16.27 92.9663 16.27H92.9246V16.2711Z" fill="white"/>
<path d="M106.358 4.02C108.899 4.02 111 5.83059 111 9.2617V15.9339H108.459V9.59789C108.459 7.26104 107.24 6.16678 105.665 6.16678H105.644C104.153 6.16678 102.724 7.24017 102.724 9.76599V15.9339H100.183V0H102.724V5.85146C103.543 4.63085 104.888 4.02 106.337 4.02H106.358Z" fill="white"/>
<path d="M10.6878 15.9339H7.38981L2.68404 10.2505V15.9339H0.142578V0H2.68404V9.87146L7.38981 4.39903H10.4565L5.87677 9.53527L5.5621 9.89343L5.98203 10.356L10.6878 15.9339Z" fill="white"/>
<path d="M19.312 4.39903H21.8535V15.9339H19.312V14.2705C18.5347 15.5966 17.1697 16.2492 15.6566 16.2492H15.6358C13.0099 16.2492 10.8884 14.4595 10.8884 10.9866V9.34519C10.8884 5.87233 13.0099 4.04086 15.6358 4.04086H15.6566C17.1686 4.04086 18.5347 4.62974 19.312 5.8932V4.39903ZM16.3287 14.1233C17.8198 14.1233 19.312 12.9235 19.312 10.5241V9.80883C19.312 7.38848 17.8209 6.18874 16.3287 6.18874H16.2871C14.7115 6.18874 13.4298 7.26213 13.4298 9.64073V10.6932C13.4298 13.051 14.7115 14.1244 16.2871 14.1244H16.3287V14.1233Z" fill="white"/>
<path d="M35.096 15.9339H31.798L27.0922 10.2505V15.9339H24.5508V0H27.0922V9.87146L31.798 4.39903H34.8646L30.285 9.53527L29.9703 9.89343L30.3902 10.356L35.096 15.9339Z" fill="white"/>
<path d="M43.7201 4.39903H46.2616V15.9339H43.7201V14.2705C42.9427 15.5966 41.5777 16.2492 40.0647 16.2492H40.0438C37.418 16.2492 35.2964 14.4595 35.2964 10.9866V9.34519C35.2964 5.87233 37.418 4.04086 40.0438 4.04086H40.0647C41.5766 4.04086 42.9427 4.62974 43.7201 5.8932V4.39903ZM40.7368 14.1233C42.2279 14.1233 43.7201 12.9235 43.7201 10.5241V9.80883C43.7201 7.38848 42.229 6.18874 40.7368 6.18874H40.6951C39.1196 6.18874 37.8379 7.26213 37.8379 9.64073V10.6932C37.8379 13.051 39.1196 14.1244 40.6951 14.1244H40.7368V14.1233Z" fill="white"/>
<path d="M53.6447 16.2711C50.8094 16.2711 48.2461 14.3979 48.2461 10.7778V9.55723C48.2461 5.91518 50.8084 4.04196 53.6447 4.04196H53.6864C56.5436 4.04196 59.0851 5.91518 59.0851 9.55723V10.7778C59.0851 14.3979 56.5436 16.2711 53.6864 16.2711H53.6447ZM53.6864 14.1244C55.1567 14.1244 56.5436 13.051 56.5436 11.0086V9.30344C56.5436 7.26213 55.1578 6.18764 53.6864 6.18764H53.6447C52.1953 6.18764 50.7875 7.26103 50.7875 9.30344V11.0086C50.7875 13.0499 52.1953 14.1244 53.6447 14.1244H53.6864Z" fill="white"/>
<path d="M71.6071 12.1457C71.5359 13.4904 70.6292 14.2298 69.661 14.2298H69.6402C68.6107 14.2298 67.6656 13.43 67.6656 11.9776V6.39969H72.5808V4.40013H67.6656V1.4733H65.1449V4.39903H63.2339V6.39859H65.1449V11.9139C65.1449 14.777 67.1196 16.2711 69.4933 16.2711H69.5141C71.7979 16.2711 73.8789 14.8165 73.9633 12.1457H71.6082H71.6071Z" fill="white"/>
<path d="M6.25608 23.8607C8.89842 23.8607 11.0331 25.7031 11.0331 29.198V30.8504C11.0331 34.3452 8.89842 36.1459 6.25608 36.1459H6.23525C4.69261 36.1459 3.33965 35.5746 2.55682 34.2826V34.5474C2.55682 35.2549 1.98449 35.8284 1.27841 35.8284C0.572323 35.8273 0 35.2538 0 34.5463V21.0756C0 20.3681 0.572323 19.7946 1.27841 19.7946C1.98449 19.7946 2.55682 20.3681 2.55682 21.0756V25.8943C3.33855 24.5386 4.69152 23.8607 6.23525 23.8607H6.25608ZM8.47521 29.4946C8.47521 27.1017 7.18584 26.0207 5.5796 26.0207H5.55877C4.03696 26.0207 2.55682 27.2281 2.55682 29.6638V30.3834C2.55682 32.7983 4.03696 34.0057 5.55877 34.0057H5.5796C7.18584 34.0057 8.47521 32.9257 8.47521 30.5537V29.4946Z" fill="#0043FF"/>
<path d="M18.0096 36.1668C15.1557 36.1668 12.5769 34.2815 12.5769 30.6383V29.41C12.5769 25.746 15.1557 23.8607 18.0096 23.8607H18.0524C20.9272 23.8607 23.4851 25.746 23.4851 29.41V30.6383C23.4851 34.2815 20.9272 36.1668 18.0524 36.1668H18.0096ZM18.0524 34.0068C19.5325 34.0068 20.9272 32.9268 20.9272 30.8723V29.1562C20.9272 27.1017 19.5325 26.0218 18.0524 26.0218H18.0096C16.5514 26.0218 15.1349 27.1017 15.1349 29.1562V30.8723C15.1349 32.9268 16.5514 34.0068 18.0096 34.0068H18.0524Z" fill="#0043FF"/>
<path d="M30.3365 36.1668C27.4826 36.1668 24.9038 34.2815 24.9038 30.6383V29.41C24.9038 25.746 27.4826 23.8607 30.3365 23.8607H30.3782C33.253 23.8607 35.8109 25.746 35.8109 29.41V30.6383C35.8109 34.2815 33.253 36.1668 30.3782 36.1668H30.3365ZM30.3782 34.0068C31.8583 34.0068 33.253 32.9268 33.253 30.8723V29.1562C33.253 27.1017 31.8583 26.0218 30.3782 26.0218H30.3365C28.8783 26.0218 27.4618 27.1017 27.4618 29.1562V30.8723C27.4618 32.9268 28.8783 34.0068 30.3365 34.0068H30.3782Z" fill="#0043FF"/>
<path d="M53.5594 36.1668C50.7055 36.1668 48.1267 34.2397 48.1267 30.5966V29.4529C48.1267 25.768 50.7055 23.8607 53.5594 23.8607H53.6022C55.9517 23.8607 57.8617 25.089 58.5798 27.0051C58.8737 27.7895 58.2893 28.6267 57.4527 28.6267C56.9484 28.6267 56.4945 28.3114 56.3256 27.8345C55.9353 26.7304 54.8466 26.0218 53.6011 26.0218H53.5583C52.1001 26.0218 50.6835 27.1017 50.6835 29.1562V30.8723C50.6835 32.9268 52.1001 34.0068 53.5583 34.0068H53.6011C54.8488 34.0068 55.9408 33.3092 56.3278 32.194C56.4934 31.7172 56.9484 31.4019 57.4527 31.4019C58.2871 31.4019 58.8726 32.238 58.5765 33.0202C57.8562 34.9275 55.9474 36.1668 53.6 36.1668H53.5572H53.5594Z" fill="#0043FF"/>
<path d="M69.9847 24.221C70.6908 24.221 71.2631 24.7945 71.2631 25.5021V34.5463C71.2631 35.2538 70.6908 35.8273 69.9847 35.8273C69.2786 35.8273 68.7063 35.2538 68.7063 34.5463V34.154C67.9246 35.4889 66.5508 36.1448 65.0279 36.1448H65.007C62.3647 36.1448 60.23 34.3441 60.23 30.8493V29.1969C60.23 25.702 62.3647 23.8596 65.007 23.8596H65.0279C66.5497 23.8596 67.9235 24.4529 68.7063 25.724V25.5021C68.7063 24.7945 69.2786 24.221 69.9847 24.221ZM65.7044 34.0068C67.2053 34.0068 68.7063 32.7994 68.7063 30.3845V29.6649C68.7063 27.2292 67.2053 26.0218 65.7044 26.0218H65.6627C64.0773 26.0218 62.7879 27.1017 62.7879 29.4957V30.5548C62.7879 32.9268 64.0773 34.0068 65.6627 34.0068H65.7044Z" fill="#0043FF"/>
<path d="M87.9678 23.8607C90.3985 23.8607 92.3644 25.4922 92.3644 28.6047V34.5463C92.3644 35.2538 91.7921 35.8273 91.086 35.8273C90.3799 35.8273 89.8076 35.2538 89.8076 34.5463V28.9442C89.8076 26.9534 88.687 26.0218 87.2288 26.0218H87.208C85.7278 26.0218 84.3124 27.06 84.3124 29.5166V34.5572C84.3124 35.2593 83.7444 35.8284 83.0438 35.8284C82.3432 35.8284 81.7753 35.2593 81.7753 34.5572V28.9442C81.7753 26.9534 80.6548 26.0218 79.1966 26.0218H79.1757C77.7175 26.0218 76.301 27.06 76.301 29.5166V34.5474C76.301 35.2549 75.7286 35.8284 75.0226 35.8284C74.3165 35.8284 73.7441 35.2549 73.7441 34.5474V25.5032C73.7441 24.7956 74.3165 24.2221 75.0226 24.2221C75.7286 24.2221 76.301 24.7956 76.301 25.5032V25.7042C77.1046 24.4551 78.4784 23.8618 79.9158 23.8618H79.9366C81.7336 23.8618 83.2555 24.7297 83.9319 26.4458C84.672 24.688 86.2574 23.8618 87.9481 23.8618H87.9689L87.9678 23.8607Z" fill="#0043FF"/>
<path d="M100.888 23.8607C103.53 23.8607 105.665 25.7031 105.665 29.198V30.8504C105.665 34.3452 103.53 36.1459 100.888 36.1459H100.867C99.3244 36.1459 97.9714 35.5746 97.1886 34.2826V38.7201C97.1886 39.4276 96.6163 40.0011 95.9102 40.0011C95.2041 40.0011 94.6318 39.4276 94.6318 38.7201V25.5032C94.6318 24.7956 95.2041 24.2221 95.9102 24.2221C96.6163 24.2221 97.1886 24.7956 97.1886 25.5032V25.8954C97.9703 24.5397 99.3233 23.8618 100.867 23.8618H100.888V23.8607ZM103.107 29.4946C103.107 27.1017 101.818 26.0207 100.211 26.0207H100.191C98.6687 26.0207 97.1886 27.2281 97.1886 29.6638V30.3834C97.1886 32.7983 98.6687 34.0057 100.191 34.0057H100.211C101.818 34.0057 103.107 32.9257 103.107 30.5537V29.4946Z" fill="#0043FF"/>
<path d="M46.0545 32.0083C45.5699 32.0083 45.1214 32.3028 44.9613 32.762C44.6565 33.6366 43.9187 34.109 43.1424 34.109H43.1216C42.0844 34.109 41.1316 33.3026 41.1316 31.8392V26.2173H45.0798C45.6356 26.2173 46.0852 25.7658 46.0852 25.2098C46.0852 24.6528 45.6345 24.2024 45.0798 24.2024H41.1316V22.5258C41.1316 21.8227 40.5626 21.2525 39.8609 21.2525C39.1592 21.2525 38.5901 21.8227 38.5901 22.5258V24.2024H37.6692C37.1133 24.2024 36.6638 24.6539 36.6638 25.2098C36.6638 25.7669 37.1144 26.2173 37.6692 26.2173H38.5901V31.7754C38.5901 34.6605 40.5801 36.1668 42.9725 36.1668H42.9933C44.7695 36.1668 46.424 35.2933 47.1257 33.6585C47.4601 32.8785 46.8998 32.0094 46.0534 32.0094L46.0545 32.0083Z" fill="#0043FF"/>
</g>
</g>
<defs>
<clipPath id="clip0_29944_1942">
<rect width="111" height="40" fill="white"/>
</clipPath>
</defs>
</svg>
